<svg width="53" height="16" viewBox="0 0 53 16" fill="none" xmlns="http://www.w3.org/2000/svg">
<path d="M48.27 15.4994C46.9403 15.4994 45.9525 15.3237 45.3066 14.9722C44.6797 14.6048 44.2808 14.1655 44.1098 13.6543L44.6512 13.4627V15.2598H41.6878V12.001H44.2808C44.4518 12.3205 44.6892 12.592 44.9932 12.8157C45.3161 13.0234 45.677 13.1911 46.0759 13.3189C46.4749 13.4307 46.8833 13.4866 47.3012 13.4866C47.7761 13.4866 48.137 13.4227 48.384 13.2949C48.6309 13.1512 48.7544 12.9754 48.7544 12.7678C48.7544 12.592 48.6784 12.4483 48.5264 12.3365C48.3745 12.2246 48.0705 12.1208 47.6146 12.025L45.1926 11.5218C44.1098 11.2821 43.2455 10.9227 42.5997 10.4435C41.9538 9.96425 41.6309 9.30131 41.6309 8.45467C41.6309 7.78374 41.8303 7.22464 42.2292 6.77735C42.6471 6.31409 43.1885 5.97064 43.8534 5.747C44.5373 5.50738 45.2781 5.38757 46.0759 5.38757C47.2157 5.38757 48.08 5.56329 48.6689 5.91473C49.2578 6.26617 49.6282 6.68949 49.7802 7.1847L49.2673 7.16074V5.62719H52.2022V8.64636H49.6092C49.5332 8.39077 49.3718 8.17511 49.1248 7.9994C48.8969 7.8077 48.6214 7.66393 48.2985 7.56809C47.9946 7.45626 47.6716 7.40035 47.3297 7.40035C46.8738 7.40035 46.5129 7.47224 46.2469 7.61601C46 7.7438 45.8765 7.92751 45.8765 8.16713C45.8765 8.32687 45.9525 8.46265 46.1044 8.57447C46.2754 8.67032 46.5698 8.76617 46.9878 8.86202L49.4098 9.36521C50.5305 9.58885 51.4044 9.94029 52.0312 10.4195C52.6771 10.8988 53 11.5777 53 12.4563C53 13.1112 52.7911 13.6703 52.3732 14.1336C51.9552 14.5809 51.3854 14.9243 50.6635 15.1639C49.9606 15.3876 49.1628 15.4994 48.27 15.4994Z" fill="url(#paint0_linear_107_192)"/>
<path d="M31.2809 15.5002C30.2551 15.5002 29.3623 15.2845 28.6025 14.8532C27.8616 14.4059 27.2917 13.8069 26.8928 13.0561C26.4939 12.2893 26.2944 11.4187 26.2944 10.4443C26.2944 9.45384 26.4939 8.58323 26.8928 7.83243C27.2917 7.08163 27.8616 6.49058 28.6025 6.05927C29.3623 5.61198 30.2551 5.38834 31.2809 5.38834C32.0597 5.38834 32.8101 5.53211 33.5319 5.81965C34.2538 6.10719 34.8712 6.55447 35.3841 7.1615L34.8997 7.30527V3.63914H33.304V1.29089H39.1453V12.9123H40.5985V15.2605H35.2416V13.3915L35.3841 13.727C34.8712 14.334 34.2538 14.7813 33.5319 15.0689C32.8101 15.3564 32.0597 15.5002 31.2809 15.5002ZM32.7626 12.7446C33.1425 12.7446 33.5319 12.6727 33.9309 12.5289C34.3488 12.3692 34.7287 12.1136 35.0706 11.7621L34.8997 13.0082V8.04808L35.0706 9.12636C34.7287 8.77492 34.3488 8.52732 33.9309 8.38355C33.5319 8.2238 33.1425 8.14393 32.7626 8.14393C32.0787 8.14393 31.5184 8.34361 31.0815 8.74297C30.6445 9.14233 30.4261 9.70943 30.4261 10.4443C30.4261 11.1791 30.6445 11.7462 31.0815 12.1455C31.5184 12.5449 32.0787 12.7446 32.7626 12.7446Z" fill="url(#paint1_linear_107_192)"/>
<path d="M18.1522 15.2603V12.912H19.6054V7.99988H18.0098V5.62768H23.8796V12.912H25.1903V15.2603H18.1522ZM21.7425 4.52544C20.9827 4.52544 20.3748 4.34173 19.9189 3.97432C19.482 3.60691 19.2635 3.11969 19.2635 2.51266C19.2635 1.90563 19.482 1.41841 19.9189 1.051C20.3748 0.683584 20.9827 0.499878 21.7425 0.499878C22.4833 0.499878 23.0722 0.683584 23.5091 1.051C23.965 1.41841 24.193 1.90563 24.193 2.51266C24.193 3.11969 23.965 3.60691 23.5091 3.97432C23.0722 4.34173 22.4833 4.52544 21.7425 4.52544Z" fill="url(#paint2_linear_107_192)"/>
<path d="M0 15.4999V13.0222H1.44V4.47758H0V1.99988H7.2514V4.47758H5.8114V8.06678L9.9771 4.47758H8.89711V1.99988H16.0199V4.47758H14.6828L9.56567 8.87724V7.5805L15.1714 13.0222H16.5085V15.4999H8.99996V13.0222H10.08L5.8114 8.80777V13.0222H7.2514V15.4999H0Z" fill="url(#paint3_linear_107_192)"/>
<defs>
<linearGradient id="paint0_linear_107_192" x1="-47.8223" y1="-4.20907" x2="67.9515" y2="33.3615" gradientUnits="userSpaceOnUse">
<stop offset="0.358785" stop-color="#FAC64C"/>
<stop offset="1" stop-color="#FF4F04"/>
</linearGradient>
<linearGradient id="paint1_linear_107_192" x1="-46.3211" y1="-4.20831" x2="69.4527" y2="33.3623" gradientUnits="userSpaceOnUse">
<stop offset="0.358785" stop-color="#FAC64C"/>
<stop offset="1" stop-color="#FF4F04"/>
</linearGradient>
<linearGradient id="paint2_linear_107_192" x1="-44.8308" y1="-4.20859" x2="70.943" y2="33.362" gradientUnits="userSpaceOnUse">
<stop offset="0.358785" stop-color="#FAC64C"/>
<stop offset="1" stop-color="#FF4F04"/>
</linearGradient>
<linearGradient id="paint3_linear_107_192" x1="-38.6659" y1="-3.31445" x2="67.1022" y2="28.738" gradientUnits="userSpaceOnUse">
<stop offset="0.358785" stop-color="#FAC64C"/>
<stop offset="1" stop-color="#FF4F04"/>
</linearGradient>
</defs>
</svg>
