<svg width="286" height="54" viewBox="0 0 286 54" fill="none" xmlns="http://www.w3.org/2000/svg">
<path d="M263.818 31.2866C262.394 31.2866 261.137 31.0046 260.048 30.4407C258.959 29.8471 257.982 29.0605 257.116 28.081L258.749 28.7934L258.582 30.8414H250.665V26.9235H252.843V8.58051H250.665V4.6626H259.043V15.9711L257.995 15.704C258.638 14.7839 259.49 14.0418 260.551 13.4779C261.612 12.8843 262.813 12.5875 264.153 12.5875C265.689 12.5875 267.016 12.9733 268.133 13.745C269.278 14.4871 270.144 15.5407 270.73 16.9061C271.345 18.2714 271.652 19.8742 271.652 21.7144C271.652 23.6734 271.317 25.3652 270.647 26.7899C270.004 28.2146 269.097 29.3276 267.924 30.129C266.751 30.9007 265.382 31.2866 263.818 31.2866ZM261.64 26.3892C262.729 26.3892 263.595 25.9885 264.237 25.1871C264.907 24.3857 265.243 23.3024 265.243 21.937C265.243 20.4827 264.907 19.3844 264.237 18.6424C263.567 17.8707 262.701 17.4849 261.64 17.4849C260.97 17.4849 260.327 17.6629 259.713 18.0191C259.099 18.3753 258.554 18.9096 258.079 19.6219L259.043 17.3513V26.8789L257.954 24.5638C258.484 25.1278 259.043 25.573 259.629 25.8995C260.244 26.226 260.914 26.3892 261.64 26.3892Z" fill="white"/>
<path d="M235.389 31.2865C233.686 31.2865 232.331 30.8116 231.326 29.8618C230.321 28.912 229.818 27.6506 229.818 26.0775C229.818 24.7418 230.125 23.6733 230.739 22.8719C231.382 22.0409 232.206 21.4472 233.211 21.0911C234.244 20.7349 235.334 20.5568 236.479 20.5568C237.428 20.5568 238.308 20.6458 239.118 20.8239C239.928 21.002 240.598 21.2246 241.128 21.4917L240.165 21.7144V20.2451C240.165 19.1173 239.886 18.2862 239.327 17.7519C238.796 17.188 238.015 16.906 236.981 16.906C236.199 16.906 235.361 17.0247 234.468 17.2622C233.602 17.4996 232.597 17.8855 231.452 18.4197L230.069 14.6354C231.466 13.9527 232.862 13.4482 234.258 13.1217C235.655 12.7655 237.065 12.5874 238.489 12.5874C240.137 12.5874 241.533 12.8842 242.678 13.4778C243.851 14.0418 244.731 14.8729 245.318 15.9711C245.932 17.0396 246.239 18.3307 246.239 19.8444V26.9234H248.25V30.8413H241.128L240.291 28.081H241.799C240.877 29.1495 239.9 29.9509 238.866 30.4851C237.833 31.0194 236.674 31.2865 235.389 31.2865ZM237.526 27.8584C238.112 27.8584 238.699 27.71 239.285 27.4131C239.872 27.1163 240.43 26.6266 240.961 25.9439L240.165 27.5912V23.2726L240.961 24.2076C240.57 23.9701 240.109 23.7772 239.578 23.6288C239.076 23.4804 238.517 23.4062 237.903 23.4062C237.233 23.4062 236.632 23.5843 236.102 23.9404C235.599 24.2669 235.347 24.8457 235.347 25.6768C235.347 26.3595 235.529 26.8937 235.892 27.2796C236.283 27.6654 236.828 27.8584 237.526 27.8584Z" fill="white"/>
<path d="M205.37 30.8415V26.3003H207.758V9.33748H205.37V5.10791H217.267V9.33748H214.879V26.3003H221.498V19.4884H226.232V30.8415H205.37Z" fill="white"/>
<path d="M168.603 30.8413V26.9234H170.781V16.906H168.645V13.0326H176.562L176.688 15.1697L175.138 15.8375C176.283 14.8283 177.456 14.0418 178.657 13.4778C179.858 12.8842 181.114 12.5874 182.427 12.5874C184.298 12.5874 185.708 13.1959 186.658 14.4128C187.635 15.6 188.124 17.0693 188.124 18.8204V26.9234H190.261V30.8413H180.123V26.9234H181.924V19.8444C181.924 18.954 181.729 18.2713 181.338 17.7964C180.947 17.2919 180.388 17.0396 179.662 17.0396C179.048 17.0396 178.392 17.2028 177.693 17.5293C176.995 17.8261 176.339 18.2268 175.724 18.7314L177.023 16.0601V26.9234H178.824V30.8413H168.603ZM191.601 30.8413V26.9234H193.402V19.8444C193.402 18.954 193.193 18.2713 192.774 17.7964C192.383 17.2919 191.839 17.0396 191.14 17.0396C190.498 17.0396 189.842 17.188 189.171 17.4848C188.529 17.7816 187.915 18.1823 187.328 18.6869L186.574 15.8375C187.719 14.8283 188.878 14.0418 190.051 13.4778C191.252 12.8842 192.523 12.5874 193.863 12.5874C195.679 12.5874 197.089 13.181 198.094 14.3683C199.1 15.5258 199.602 16.9951 199.602 18.7759V26.9234H201.739V30.8413H191.601Z" fill="white"/>
<path d="M152.254 31.2866C150.969 31.2866 149.894 31.0047 149.028 30.4407C148.19 29.8768 147.562 29.1199 147.143 28.1701C146.724 27.2203 146.514 26.1815 146.514 25.0536V16.9061H144.42V13.0327H152.756V24.0741C152.756 24.9349 152.938 25.6175 153.301 26.1221C153.692 26.597 154.25 26.8345 154.976 26.8345C155.675 26.8345 156.359 26.6564 157.029 26.3002C157.727 25.944 158.37 25.4543 158.956 24.831L157.699 27.6804V16.9061H155.856V13.0327H163.899V26.9235H166.078V30.8414H158.202L157.993 28.5263L159.543 27.903C158.453 28.9418 157.308 29.7729 156.107 30.3962C154.907 30.9898 153.622 31.2866 152.254 31.2866Z" fill="white"/>
<path d="M131.621 30.8416V26.9237H133.799V16.9063H131.621V13.0329H140.041V26.9237H142.178V30.8416H131.621ZM136.439 9.73827C135.349 9.73827 134.47 9.39693 133.799 8.71427C133.129 8.0316 132.794 7.14116 132.794 6.04296C132.794 4.91508 133.129 4.02464 133.799 3.37166C134.47 2.68899 135.349 2.34766 136.439 2.34766C137.528 2.34766 138.393 2.68899 139.036 3.37166C139.706 4.02464 140.041 4.91508 140.041 6.04296C140.069 7.14116 139.748 8.0316 139.078 8.71427C138.407 9.39693 137.528 9.73827 136.439 9.73827Z" fill="white"/>
<path d="M107.607 30.8413V26.9234H109.786V16.906H107.607V13.0326H115.567L115.692 15.2142L114.142 15.8375C115.287 14.8283 116.46 14.0418 117.661 13.4778C118.862 12.8842 120.119 12.5874 121.431 12.5874C123.247 12.5874 124.657 13.181 125.662 14.3683C126.668 15.5258 127.17 16.9951 127.17 18.7759V26.9234H129.307V30.8413H119.169V26.9234H120.929V19.8444C120.929 18.954 120.733 18.2713 120.342 17.7964C119.951 17.2919 119.407 17.0396 118.709 17.0396C118.038 17.0396 117.368 17.2028 116.698 17.5293C116.027 17.8261 115.371 18.2417 114.729 18.7759L116.027 16.0601V26.9234H117.829V30.8413H107.607Z" fill="white"/>
<path d="M96.9127 31.3311C94.9858 31.3311 93.2962 30.9601 91.8439 30.2181C90.4196 29.4761 89.3026 28.4075 88.4927 27.0125C87.6828 25.5878 87.2778 23.896 87.2778 21.9371C87.2778 20.0671 87.6688 18.4347 88.4508 17.0397C89.2327 15.6446 90.3079 14.5464 91.6764 13.7451C93.0727 12.9437 94.6646 12.543 96.4519 12.543C98.2114 12.543 99.7055 12.9437 100.934 13.7451C102.191 14.5168 103.141 15.6001 103.783 16.9951C104.453 18.3605 104.788 19.9484 104.788 21.759V22.9611H90.7129L90.7548 20.1562H99.0492C99.0492 19.4438 98.9375 18.8502 98.7141 18.3753C98.5186 17.8707 98.2114 17.4849 97.7925 17.2178C97.3735 16.9506 96.8569 16.8171 96.2425 16.8171C95.5443 16.8171 94.9578 17.01 94.4831 17.3958C94.0083 17.752 93.6453 18.2863 93.3939 18.9986C93.1705 19.6813 93.0588 20.4975 93.0588 21.4473C93.0588 22.5455 93.2543 23.4656 93.6453 24.2077C94.0642 24.92 94.6227 25.4691 95.3209 25.855C96.0191 26.2111 96.829 26.3892 97.7506 26.3892C98.7559 26.3892 99.7055 26.2111 100.599 25.855C101.493 25.4988 102.275 25.0387 102.945 24.4748L104.663 28.3927C103.713 29.2831 102.582 29.9955 101.269 30.5298C99.9568 31.064 98.5046 31.3311 96.9127 31.3311Z" fill="white"/>
<path d="M69.8659 31.2866C67.129 31.2866 64.7133 30.7375 62.6188 29.6393C60.5521 28.5411 58.9324 26.9977 57.7594 25.009C56.5865 22.9907 56 20.6756 56 18.0636C56 15.3923 56.5446 13.0624 57.6337 11.0737C58.7508 9.05541 60.2868 7.48231 62.2417 6.35442C64.1967 5.22654 66.4588 4.6626 69.0281 4.6626C71.737 4.6626 73.9153 5.2859 75.5631 6.53251C77.2387 7.74944 78.3279 9.32254 78.8305 11.2518L77.113 10.1388V5.10781H81.8467V14.3238H77.7833C77.0851 12.8694 76.1635 11.7564 75.0185 10.9847C73.9014 10.213 72.4911 9.82712 70.7875 9.82712C69.2794 9.82712 67.9668 10.1536 66.8497 10.8066C65.7606 11.4299 64.9088 12.35 64.2944 13.5669C63.7079 14.7542 63.4147 16.2234 63.4147 17.9746C63.4147 19.6664 63.694 21.1208 64.2525 22.3377C64.8111 23.5547 65.593 24.4896 66.5984 25.1426C67.6317 25.7956 68.8186 26.1221 70.1591 26.1221C71.0528 26.1221 71.8627 26.0033 72.5888 25.7659C73.3149 25.5285 73.9433 25.1723 74.4739 24.6974C75.0045 24.2225 75.4095 23.6289 75.6887 22.9165C75.9959 22.2042 76.1495 21.3582 76.1495 20.3788L78.4535 21.4028H71.9185V16.817H82.894V18.6424C82.894 20.7795 82.5728 22.6494 81.9305 24.2522C81.2881 25.8253 80.3665 27.1312 79.1657 28.1701C77.9927 29.2089 76.6103 29.9955 75.0185 30.5297C73.4545 31.0343 71.737 31.2866 69.8659 31.2866Z" fill="white"/>
<path d="M235.872 39.5692C234.995 39.5692 234.416 39.1177 234.416 38.4771H235.306C235.306 38.7501 235.519 38.9496 235.872 38.9496C236.211 38.9496 236.423 38.7501 236.423 38.4771H237.314C237.314 39.1177 236.749 39.5692 235.872 39.5692ZM232.111 47.6767V40.3254H233.256V46.4795C233.341 46.3219 233.68 45.9019 233.68 45.9019L238.375 40.3254H239.605V47.6767H238.46V41.5121C238.375 41.6696 238.035 42.0897 238.035 42.0897L233.341 47.6767H232.111Z" fill="#B4B4B4"/>
<path d="M221.294 47.6767V40.3254H222.439V46.4795C222.524 46.322 222.863 45.9019 222.863 45.9019L227.558 40.3254H228.788V47.6767H227.643V41.5121C227.558 41.6697 227.219 42.0898 227.219 42.0898L222.524 47.6767H221.294Z" fill="#B4B4B4"/>
<path d="M210.588 40.3254H211.776V43.5285H216.795V40.3254H217.983V47.6767H216.795V44.3266H211.776V47.6767H210.588V40.3254Z" fill="#B4B4B4"/>
<path d="M199.208 47.6767L203.167 40.3254H204.383L208.342 47.6767H207.084L205.953 45.5134H201.598L200.466 47.6767H199.208ZM201.994 44.7572H205.557L204.044 41.8587C203.945 41.6907 203.832 41.4491 203.775 41.3021C203.719 41.4491 203.605 41.6907 203.507 41.8587L201.994 44.7572Z" fill="#B4B4B4"/>
<path d="M189.576 40.3254H190.764V43.5285H195.784V40.3254H196.971V47.6767H195.784V44.3266H190.764V47.6767H189.576V40.3254Z" fill="#B4B4B4"/>
<path d="M184.886 43.7177C186.046 44.0117 186.753 44.6418 186.753 45.545C186.753 46.9312 185.268 47.8239 183.09 47.8239C180.941 47.8239 179.697 46.9417 179.386 45.797L180.489 45.503C180.644 46.3011 181.592 47.0362 183.09 47.0362C184.547 47.0362 185.565 46.5111 185.565 45.566C185.565 44.6418 184.533 44.1902 183.105 44.1902H182.157V43.4131H183.119C184.405 43.4131 185.169 42.909 185.169 42.1319C185.169 41.3967 184.405 40.9662 183.147 40.9662C181.733 40.9662 181.012 41.4808 180.786 42.2054L179.697 42.0269C179.994 40.9872 181.083 40.1785 183.147 40.1785C185.24 40.1785 186.314 41.0082 186.314 42.0689C186.314 42.8565 185.791 43.4236 184.886 43.7177Z" fill="#B4B4B4"/>
<path d="M167.326 40.3254H171.214V47.6767H170.026V44.5682H167.736L165.247 47.6767H163.96L166.506 44.4842C164.936 44.2531 164.144 43.497 164.144 42.4153C164.144 41.2181 165.318 40.3254 167.326 40.3254ZM170.026 43.8016V41.0921H167.467C166.11 41.0921 165.332 41.5332 165.332 42.4468C165.332 43.3605 166.11 43.8016 167.467 43.8016H170.026Z" fill="#B4B4B4"/>
<path d="M153.628 47.6767V40.3254H154.774V46.4795C154.859 46.322 155.198 45.9019 155.198 45.9019L159.892 40.3254H161.123V47.6767H159.977V41.5121C159.892 41.6697 159.553 42.0898 159.553 42.0898L154.859 47.6767H153.628Z" fill="#B4B4B4"/>
<path d="M140.603 40.3254H141.903L145.452 46.8471L149.016 40.3254H150.317V47.6767H149.157V42.0162C149.072 42.2053 148.662 43.0559 148.662 43.0559L146.075 47.6767H144.844L142.257 43.0664C142.257 43.0664 141.833 42.2053 141.748 42.0162V47.6767H140.603V40.3254Z" fill="#B4B4B4"/>
<path d="M131.388 40.3254H137.567V41.1026H132.575V43.4865H137.171V44.2636H132.575V46.8996H137.609V47.6767H131.388V40.3254Z" fill="#B4B4B4"/>
<path d="M119.542 49V46.8891H120.333C120.97 46.0069 121.182 45.2823 121.267 44.0011L121.535 40.3254H127.474V46.8891H128.69V49H127.573V47.6767H120.659V49H119.542ZM121.563 46.8891H126.286V41.1026H122.624L122.412 44.0851C122.313 45.3768 122.129 46.0595 121.563 46.8891Z" fill="#B4B4B4"/>
<path d="M108.169 47.6767L112.129 40.3254H113.345L117.304 47.6767H116.045L114.914 45.5134H110.559L109.428 47.6767H108.169ZM110.955 44.7572H114.518L113.005 41.8587C112.906 41.6907 112.793 41.4491 112.737 41.3021C112.68 41.4491 112.567 41.6907 112.468 41.8587L110.955 44.7572Z" fill="#B4B4B4"/>
<path d="M101.699 43.8961L106.294 47.6767H104.767L101.444 44.9358L100.568 44.2111V47.6767H99.3799V40.3254H100.568V43.644C100.808 43.434 101.147 43.1609 101.487 42.8774L104.569 40.3254H106.125L101.699 43.8961Z" fill="#B4B4B4"/>
<path d="M88 47.6767L91.9591 40.3254H93.1752L97.1343 47.6767H95.8759L94.7447 45.5134H90.3896L89.2584 47.6767H88ZM90.7855 44.7572H94.3488L92.8358 41.8587C92.7368 41.6907 92.6237 41.4491 92.5671 41.3021C92.5106 41.4491 92.3975 41.6907 92.2985 41.8587L90.7855 44.7572Z" fill="#B4B4B4"/>
<g clip-path="url(#clip0_107_112)">
<path d="M35.3752 7.54523C35.9002 6.36167 37.3502 5.42469 37.3502 5.42469C35.5752 4.95619 33.8252 5.25208 32.8002 5.57263C32.2002 4.93153 29.8502 -0.887644 20.3752 0.0986576C20.3752 0.0986576 22.7752 1.38085 24.2252 3.74797C24.2252 3.74797 23.6252 3.69866 23.2252 3.72332C12.9752 3.96989 4.2252 12.6987 4.1252 22.8082C4.0502 29.6137 7.5752 35.6302 12.9252 39.1069C13.8752 39.7233 14.4502 40.7836 14.4502 41.9178V42.5343C14.4502 44.137 15.7752 45.4439 17.4002 45.4439H29.9752C31.6002 45.4439 32.9252 44.137 32.9252 42.5343V41.9425C32.9252 40.8329 33.4752 39.7726 34.4252 39.1562C39.7502 35.7041 43.2502 29.7617 43.2502 23.0302C43.2502 16.6932 40.1502 11.0713 35.3752 7.54523Z" fill="url(#paint0_linear_107_112)"/>
<path d="M24.3999 38.5397C15.6999 38.5397 10.0249 36.789 6.3999 32.0301C7.9499 34.8904 10.1999 37.3315 12.9249 39.1069C13.8749 39.7233 14.4499 40.7836 14.4499 41.9178V42.5343C14.4499 44.137 15.7749 45.4438 17.3999 45.4438H29.9749C31.5999 45.4438 32.9249 44.137 32.9249 42.5343V41.9425C32.9249 40.8329 33.4749 39.7726 34.4249 39.1562C37.2999 37.2822 39.6499 34.6932 41.1749 31.6603C37.7749 36.3945 30.6249 38.5397 24.3999 38.5397Z" fill="url(#paint1_linear_107_112)"/>
<path d="M32.7998 26.3343C34.5947 26.3343 36.0498 24.4024 36.0498 22.0192C36.0498 19.6361 34.5947 17.7042 32.7998 17.7042C31.0049 17.7042 29.5498 19.6361 29.5498 22.0192C29.5498 24.4024 31.0049 26.3343 32.7998 26.3343Z" fill="#00042D"/>
<path d="M31.8996 20.6392C32.5485 20.6392 33.0746 20.1202 33.0746 19.48C33.0746 18.8397 32.5485 18.3207 31.8996 18.3207C31.2507 18.3207 30.7246 18.8397 30.7246 19.48C30.7246 20.1202 31.2507 20.6392 31.8996 20.6392Z" fill="white"/>
<path d="M14.4751 26.3343C16.27 26.3343 17.7251 24.4024 17.7251 22.0192C17.7251 19.6361 16.27 17.7042 14.4751 17.7042C12.6802 17.7042 11.2251 19.6361 11.2251 22.0192C11.2251 24.4024 12.6802 26.3343 14.4751 26.3343Z" fill="#00042D"/>
<path d="M13.55 20.6392C14.1989 20.6392 14.725 20.1202 14.725 19.48C14.725 18.8397 14.1989 18.3207 13.55 18.3207C12.9011 18.3207 12.375 18.8397 12.375 19.48C12.375 20.1202 12.9011 20.6392 13.55 20.6392Z" fill="white"/>
<path d="M30.5747 48.8722H16.5497C15.5997 48.8722 14.8247 48.1076 14.8247 47.1703C14.8247 46.2331 15.5997 45.4685 16.5497 45.4685H30.5747C31.5247 45.4685 32.2997 46.2331 32.2997 47.1703C32.3247 48.1076 31.5497 48.8722 30.5747 48.8722Z" fill="url(#paint2_linear_107_112)"/>
<path d="M24.3248 54H23.0248C21.7248 54 20.5748 53.1863 20.1498 51.9781L19.0498 48.8712H28.2998L27.1998 51.9781C26.7998 53.1863 25.6248 54 24.3248 54Z" fill="url(#paint3_linear_107_112)"/>
<path d="M27.1847 52.0491L28.2959 48.8661L19.0576 48.8662L20.1719 52.0491H27.1847Z" fill="url(#paint4_linear_107_112)" fill-opacity="0.82"/>
<path d="M35.9 9.51782C31.8 9.51782 28.225 11.7123 26.3 14.9918C25.675 14.1041 24.625 13.537 23.475 13.537C22.325 13.537 21.3 14.0795 20.675 14.9425C18.75 11.7123 15.175 9.51782 11.1 9.51782C4.975 9.51782 0 14.4247 0 20.4658C0 26.5069 4.975 31.4137 11.1 31.4137C17.225 31.4137 22.175 26.5069 22.175 20.4658C22.175 19.1343 21.925 17.8274 21.475 16.6439C21.625 15.7069 22.45 14.9918 23.45 14.9918C24.5 14.9918 25.35 15.7808 25.45 16.7671C25.025 17.926 24.8 19.1589 24.8 20.4658C24.8 26.5069 29.775 31.4137 35.9 31.4137C42.025 31.4137 47 26.5069 47 20.4658C47 14.4247 42.025 9.51782 35.9 9.51782ZM11.1 29.9589C5.775 29.9589 1.475 25.7178 1.475 20.4658C1.475 15.2137 5.775 10.9726 11.1 10.9726C16.425 10.9726 20.725 15.2137 20.725 20.4658C20.725 25.7178 16.4 29.9589 11.1 29.9589ZM35.9 29.9589C30.575 29.9589 26.275 25.7178 26.275 20.4658C26.275 15.2137 30.575 10.9726 35.9 10.9726C41.225 10.9726 45.525 15.2137 45.525 20.4658C45.525 25.7178 41.225 29.9589 35.9 29.9589Z" fill="white"/>
<path d="M23.9248 34.5206C23.8248 34.5206 23.6998 34.5206 23.5748 34.5206C22.0748 34.4219 20.6498 33.5343 19.8998 32.2521C19.6248 31.7836 19.7748 31.1671 20.2748 30.8959C20.7498 30.6247 21.3748 30.7726 21.6498 31.2658C22.0748 31.9808 22.8998 32.4986 23.7248 32.548C24.4998 32.5973 25.5248 32.3014 26.0248 31.3151C26.2748 30.8219 26.8748 30.6247 27.3748 30.8712C27.8748 31.1178 28.0748 31.7096 27.8248 32.2028C27.0998 33.6082 25.5998 34.5206 23.9248 34.5206Z" fill="#00042D"/>
</g>
<defs>
<linearGradient id="paint0_linear_107_112" x1="11.1322" y1="56.0805" x2="30.4545" y2="3.94682" gradientUnits="userSpaceOnUse">
<stop stop-color="#D26900"/>
<stop offset="0.0922435" stop-color="#CB6500"/>
<stop offset="0.2837" stop-color="#D66B00"/>
<stop offset="0.48529" stop-color="#FF8D1C"/>
<stop offset="0.6215" stop-color="#FDB50B"/>
<stop offset="0.823322" stop-color="#FFC94A"/>
<stop offset="0.9846" stop-color="#FFE19A"/>
<stop offset="1" stop-color="#FFE19A"/>
</linearGradient>
<linearGradient id="paint1_linear_107_112" x1="23.7953" y1="27.3671" x2="23.7953" y2="55.2213" gradientUnits="userSpaceOnUse">
<stop stop-color="#250B47" stop-opacity="0"/>
<stop offset="0.2757" stop-color="#250B47" stop-opacity="0.2757"/>
<stop offset="0.6158" stop-color="#250B47" stop-opacity="0.6158"/>
<stop offset="0.8672" stop-color="#250B47" stop-opacity="0.84"/>
<stop offset="1" stop-color="#250B47"/>
</linearGradient>
<linearGradient id="paint2_linear_107_112" x1="19.4025" y1="58.1017" x2="37.1373" y2="10.2639" gradientUnits="userSpaceOnUse">
<stop stop-color="#250B47"/>
<stop offset="0.0922435" stop-color="#250B47"/>
<stop offset="0.2837" stop-color="#260E46"/>
<stop offset="0.5494" stop-color="#361365"/>
<stop offset="0.6215" stop-color="#361365"/>
<stop offset="0.7714" stop-color="#511E96"/>
<stop offset="0.9846" stop-color="#511E96"/>
<stop offset="1" stop-color="#511E96"/>
</linearGradient>
<linearGradient id="paint3_linear_107_112" x1="21.0649" y1="55.8791" x2="39.693" y2="5.61823" gradientUnits="userSpaceOnUse">
<stop stop-color="#250B47"/>
<stop offset="0.0922435" stop-color="#250B47"/>
<stop offset="0.2837" stop-color="#2D0F55"/>
<stop offset="0.5494" stop-color="#4E2189"/>
<stop offset="0.6215" stop-color="#622BA9"/>
<stop offset="0.7714" stop-color="#622BA9"/>
<stop offset="0.9846" stop-color="#622BA9"/>
<stop offset="1" stop-color="#622BA9"/>
</linearGradient>
<linearGradient id="paint4_linear_107_112" x1="23.3279" y1="50.8805" x2="23.3155" y2="48.0983" gradientUnits="userSpaceOnUse">
<stop stop-color="#250B47"/>
<stop offset="0.2757" stop-color="#47138B"/>
<stop offset="0.545354" stop-color="#352270"/>
<stop offset="0.848931" stop-color="#2D0D57"/>
<stop offset="1" stop-color="#350C6A"/>
</linearGradient>
<clipPath id="clip0_107_112">
<rect width="47" height="54" fill="white"/>
</clipPath>
</defs>
</svg>
