<svg width="368" height="54" viewBox="0 0 368 54" fill="none" xmlns="http://www.w3.org/2000/svg">
<path d="M277.217 33.2861C275.703 33.2861 274.368 33.0041 273.21 32.4402C272.053 31.8466 271.014 31.06 270.094 30.0805L271.83 30.7929L271.652 32.8409H263.237V28.923H265.552V10.58H263.237V6.66211H272.142V17.9706L271.029 17.7035C271.711 16.7834 272.617 16.0414 273.744 15.4774C274.872 14.8838 276.149 14.587 277.573 14.587C279.206 14.587 280.616 14.9728 281.803 15.7445C283.02 16.4866 283.94 17.5403 284.563 18.9056C285.216 20.2709 285.543 21.8737 285.543 23.7139C285.543 25.6729 285.187 27.3647 284.474 28.7894C283.792 30.2141 282.827 31.3272 281.58 32.1285C280.334 32.9003 278.879 33.2861 277.217 33.2861ZM274.902 28.3887C276.06 28.3887 276.98 27.988 277.662 27.1866C278.375 26.3852 278.731 25.3019 278.731 23.9365C278.731 22.4822 278.375 21.384 277.662 20.6419C276.95 19.8702 276.03 19.4844 274.902 19.4844C274.19 19.4844 273.507 19.6625 272.854 20.0186C272.201 20.3748 271.622 20.9091 271.118 21.6214L272.142 19.3508V28.8785L270.984 26.5633C271.548 27.1273 272.142 27.5725 272.765 27.899C273.418 28.2255 274.13 28.3887 274.902 28.3887Z" fill="#1F222E"/>
<path d="M247.003 33.287C245.193 33.287 243.753 32.8121 242.685 31.8623C241.616 30.9125 241.082 29.6511 241.082 28.078C241.082 26.7423 241.409 25.6738 242.062 24.8724C242.744 24.0413 243.62 23.4477 244.688 23.0915C245.786 22.7354 246.944 22.5573 248.161 22.5573C249.17 22.5573 250.105 22.6463 250.966 22.8244C251.827 23.0025 252.539 23.2251 253.103 23.4922L252.079 23.7148V22.2456C252.079 21.1177 251.782 20.2867 251.188 19.7524C250.625 19.1885 249.793 18.9065 248.695 18.9065C247.864 18.9065 246.974 19.0252 246.024 19.2627C245.104 19.5001 244.035 19.886 242.818 20.4202L241.349 16.6359C242.833 15.9532 244.317 15.4486 245.801 15.1222C247.285 14.766 248.784 14.5879 250.298 14.5879C252.049 14.5879 253.533 14.8847 254.75 15.4783C255.997 16.0423 256.932 16.8733 257.555 17.9715C258.208 19.0401 258.535 20.3312 258.535 21.8449V28.9239H260.672V32.8418H253.103L252.212 30.0815H253.815C252.836 31.15 251.797 31.9514 250.699 32.4856C249.601 33.0199 248.369 33.287 247.003 33.287ZM249.274 29.8588C249.897 29.8588 250.521 29.7104 251.144 29.4136C251.767 29.1168 252.361 28.6271 252.925 27.9444L252.079 29.5917V25.2731L252.925 26.2081C252.509 25.9706 252.02 25.7777 251.456 25.6293C250.921 25.4809 250.328 25.4067 249.675 25.4067C248.962 25.4067 248.324 25.5848 247.76 25.9409C247.226 26.2674 246.959 26.8462 246.959 27.6773C246.959 28.36 247.152 28.8942 247.538 29.2801C247.953 29.6659 248.532 29.8588 249.274 29.8588Z" fill="#1F222E"/>
<path d="M215.099 32.841V28.2998H217.636V11.337H215.099V7.10742H227.743V11.337H225.205V28.2998H232.24V21.4879H237.27V32.841H215.099Z" fill="#1F222E"/>
<path d="M176.022 32.8418V28.9239H178.338V18.9065H176.067V15.0331H184.482L184.615 17.1702L182.968 17.838C184.185 16.8288 185.431 16.0423 186.708 15.4783C187.984 14.8847 189.32 14.5879 190.715 14.5879C192.703 14.5879 194.202 15.1964 195.211 16.4133C196.25 17.6005 196.77 19.0697 196.77 20.8209V28.9239H199.04V32.8418H188.266V28.9239H190.18V21.8449C190.18 20.9545 189.973 20.2718 189.557 19.7969C189.142 19.2924 188.548 19.0401 187.776 19.0401C187.123 19.0401 186.426 19.2033 185.684 19.5298C184.942 19.8266 184.244 20.2273 183.591 20.7319L184.971 18.0606V28.9239H186.886V32.8418H176.022ZM200.465 32.8418V28.9239H202.379V21.8449C202.379 20.9545 202.157 20.2718 201.712 19.7969C201.296 19.2924 200.717 19.0401 199.975 19.0401C199.292 19.0401 198.595 19.1885 197.883 19.4853C197.2 19.7821 196.547 20.1828 195.924 20.6874L195.122 17.838C196.339 16.8288 197.571 16.0423 198.818 15.4783C200.094 14.8847 201.444 14.5879 202.869 14.5879C204.798 14.5879 206.297 15.1815 207.366 16.3688C208.434 17.5263 208.969 18.9955 208.969 20.7764V28.9239H211.239V32.8418H200.465Z" fill="#1F222E"/>
<path d="M158.646 33.2871C157.281 33.2871 156.138 33.0051 155.218 32.4412C154.327 31.8773 153.659 31.1204 153.214 30.1706C152.769 29.2208 152.546 28.182 152.546 27.0541V18.9066H150.32V15.0332H159.18V26.0746C159.18 26.9353 159.373 27.618 159.759 28.1226C160.174 28.5975 160.768 28.8349 161.54 28.8349C162.282 28.8349 163.009 28.6569 163.721 28.3007C164.463 27.9445 165.146 27.4548 165.769 26.8315L164.434 29.6809V18.9066H162.475V15.0332H171.023V28.924H173.338V32.8419H164.968L164.745 30.5268L166.393 29.9035C165.235 30.9423 164.018 31.7734 162.742 32.3967C161.466 32.9903 160.1 33.2871 158.646 33.2871Z" fill="#1F222E"/>
<path d="M136.718 32.8416V28.9237H139.033V18.9063H136.718V15.0329H145.667V28.9237H147.937V32.8416H136.718ZM141.838 11.7383C140.68 11.7383 139.745 11.3969 139.033 10.7143C138.321 10.0316 137.964 9.14116 137.964 8.04296C137.964 6.91508 138.321 6.02464 139.033 5.37166C139.745 4.68899 140.68 4.34766 141.838 4.34766C142.995 4.34766 143.915 4.68899 144.598 5.37166C145.31 6.02464 145.667 6.91508 145.667 8.04296C145.696 9.14116 145.355 10.0316 144.643 10.7143C143.93 11.3969 142.995 11.7383 141.838 11.7383Z" fill="#1F222E"/>
<path d="M111.196 32.8418V28.9239H113.511V18.9065H111.196V15.0331H119.655L119.789 17.2147L118.142 17.838C119.359 16.8288 120.605 16.0423 121.882 15.4783C123.158 14.8847 124.493 14.5879 125.888 14.5879C127.818 14.5879 129.317 15.1815 130.385 16.3688C131.454 17.5263 131.988 18.9955 131.988 20.7764V28.9239H134.259V32.8418H123.484V28.9239H125.354V21.8449C125.354 20.9545 125.146 20.2718 124.731 19.7969C124.315 19.2924 123.737 19.0401 122.995 19.0401C122.282 19.0401 121.57 19.2033 120.858 19.5298C120.145 19.8266 119.448 20.2422 118.765 20.7764L120.145 18.0606V28.9239H122.06V32.8418H111.196Z" fill="#1F222E"/>
<path d="M99.8298 33.3311C97.7818 33.3311 95.9861 32.9601 94.4427 32.2181C92.929 31.4761 91.7417 30.4075 90.881 29.0125C90.0202 27.5878 89.5898 25.896 89.5898 23.9371C89.5898 22.0671 90.0054 20.4347 90.8365 19.0397C91.6675 17.6446 92.8103 16.5464 94.2646 15.7451C95.7487 14.9437 97.4405 14.543 99.3401 14.543C101.21 14.543 102.798 14.9437 104.104 15.7451C105.44 16.5168 106.449 17.6001 107.131 18.9951C107.844 20.3605 108.2 21.9484 108.2 23.759V24.9611H93.2406L93.2851 22.1562H102.1C102.1 21.4438 101.982 20.8502 101.744 20.3753C101.537 19.8707 101.21 19.4849 100.765 19.2178C100.32 18.9506 99.7705 18.8171 99.1175 18.8171C98.3755 18.8171 97.7522 19.01 97.2476 19.3958C96.743 19.752 96.3571 20.2863 96.09 20.9986C95.8526 21.6813 95.7338 22.4975 95.7338 23.4473C95.7338 24.5455 95.9416 25.4656 96.3571 26.2077C96.8024 26.92 97.396 27.4691 98.138 27.855C98.88 28.2111 99.7408 28.3892 100.72 28.3892C101.789 28.3892 102.798 28.2111 103.748 27.855C104.698 27.4988 105.529 27.0387 106.241 26.4748L108.066 30.3927C107.057 31.2831 105.855 31.9955 104.46 32.5298C103.065 33.064 101.522 33.3311 99.8298 33.3311Z" fill="#1F222E"/>
<path d="M71.0844 33.2861C68.1756 33.2861 65.6082 32.737 63.3821 31.6388C61.1857 30.5406 59.4642 28.9972 58.2176 27.0085C56.971 24.9902 56.3477 22.6751 56.3477 20.0632C56.3477 17.3918 56.9264 15.0619 58.084 13.0732C59.2713 11.0549 60.9037 9.48182 62.9814 8.35393C65.0591 7.22605 67.4633 6.66211 70.1939 6.66211C73.073 6.66211 75.3881 7.28541 77.1393 8.53202C78.9202 9.74895 80.0777 11.3221 80.612 13.2513L78.7866 12.1383V7.10733H83.8176V16.3233H79.499C78.7569 14.8689 77.7775 13.7559 76.5605 12.9842C75.3733 12.2125 73.8744 11.8266 72.0638 11.8266C70.461 11.8266 69.066 12.1531 67.8788 12.8061C66.7212 13.4294 65.8159 14.3495 65.163 15.5665C64.5397 16.7537 64.228 18.2229 64.228 19.9741C64.228 21.6659 64.5248 23.1203 65.1184 24.3372C65.7121 25.5542 66.5431 26.4891 67.6117 27.1421C68.7099 27.7951 69.9713 28.1216 71.396 28.1216C72.3458 28.1216 73.2066 28.0029 73.9783 27.7654C74.75 27.528 75.4178 27.1718 75.9817 26.6969C76.5457 26.222 76.9761 25.6284 77.2729 24.916C77.5994 24.2037 77.7626 23.3578 77.7626 22.3783L80.2113 23.4023H73.2659V18.8165H84.9306V20.6419C84.9306 22.779 84.5893 24.6489 83.9066 26.2517C83.2239 27.8248 82.2445 29.1307 80.9682 30.1696C79.7216 31.2084 78.2524 31.995 76.5605 32.5292C74.8984 33.0338 73.073 33.2861 71.0844 33.2861Z" fill="#1F222E"/>
<path d="M252.837 41.4639C251.854 41.4639 251.204 41.0557 251.204 40.4766H252.203C252.203 40.7234 252.441 40.9038 252.837 40.9038C253.218 40.9038 253.456 40.7234 253.456 40.4766H254.455C254.455 41.0557 253.821 41.4639 252.837 41.4639ZM248.618 48.7927V42.1474H249.903V47.7105C249.998 47.5681 250.379 47.1883 250.379 47.1883L255.645 42.1474H257.025V48.7927H255.74V43.2201C255.645 43.3625 255.264 43.7423 255.264 43.7423L249.998 48.7927H248.618Z" fill="#B4B4B4"/>
<path d="M236.484 48.7918V42.1465H237.769V47.7096C237.864 47.5672 238.245 47.1874 238.245 47.1874L243.511 42.1465H244.891V48.7918H243.606V43.2192C243.511 43.3616 243.13 43.7414 243.13 43.7414L237.864 48.7918H236.484Z" fill="#B4B4B4"/>
<path d="M224.474 42.1465H225.806V45.0419H231.437V42.1465H232.769V48.7918H231.437V45.7634H225.806V48.7918H224.474V42.1465Z" fill="#B4B4B4"/>
<path d="M211.708 48.7918L216.149 42.1465H217.513L221.955 48.7918H220.543L219.274 46.8362H214.389L213.12 48.7918H211.708ZM214.833 46.1527H218.83L217.133 43.5325C217.022 43.3806 216.895 43.1623 216.831 43.0294C216.768 43.1623 216.641 43.3806 216.53 43.5325L214.833 46.1527Z" fill="#B4B4B4"/>
<path d="M200.903 42.1465H202.236V45.0419H207.867V42.1465H209.199V48.7918H207.867V45.7634H202.236V48.7918H200.903V42.1465Z" fill="#B4B4B4"/>
<path d="M195.643 45.2129C196.944 45.4787 197.737 46.0483 197.737 46.8647C197.737 48.1179 196.071 48.9248 193.628 48.9248C191.217 48.9248 189.822 48.1274 189.473 47.0926L190.71 46.8268C190.884 47.5483 191.947 48.2128 193.628 48.2128C195.262 48.2128 196.404 47.7381 196.404 46.8837C196.404 46.0483 195.246 45.6401 193.644 45.6401H192.582V44.9376H193.66C195.104 44.9376 195.96 44.4819 195.96 43.7794C195.96 43.1149 195.104 42.7257 193.692 42.7257C192.106 42.7257 191.297 43.1908 191.043 43.8459L189.822 43.6845C190.155 42.7447 191.376 42.0137 193.692 42.0137C196.039 42.0137 197.245 42.7636 197.245 43.7225C197.245 44.4345 196.658 44.9471 195.643 45.2129Z" fill="#B4B4B4"/>
<path d="M175.943 42.1465H180.305V48.7918H178.973V45.9818H176.403L173.611 48.7918H172.168L175.023 45.9058C173.262 45.697 172.374 45.0135 172.374 44.0356C172.374 42.9534 173.691 42.1465 175.943 42.1465ZM178.973 45.2888V42.8395H176.102C174.579 42.8395 173.707 43.2382 173.707 44.0641C173.707 44.89 174.579 45.2888 176.102 45.2888H178.973Z" fill="#B4B4B4"/>
<path d="M160.578 48.7918V42.1465H161.863V47.7096C161.958 47.5672 162.339 47.1874 162.339 47.1874L167.605 42.1465H168.985V48.7918H167.7V43.2192C167.605 43.3616 167.224 43.7414 167.224 43.7414L161.958 48.7918H160.578Z" fill="#B4B4B4"/>
<path d="M145.966 42.1465H147.425L151.406 48.0418L155.404 42.1465H156.863V48.7918H155.562V43.6749C155.467 43.8458 155.007 44.6147 155.007 44.6147L152.104 48.7918H150.724L147.822 44.6242C147.822 44.6242 147.346 43.8458 147.251 43.6749V48.7918H145.966V42.1465Z" fill="#B4B4B4"/>
<path d="M135.629 42.1465H142.56V42.849H136.961V45.004H142.116V45.7065H136.961V48.0893H142.608V48.7918H135.629V42.1465Z" fill="#B4B4B4"/>
<path d="M122.34 49.9879V48.0798H123.228C123.942 47.2824 124.18 46.6273 124.275 45.4691L124.576 42.1465H131.238V48.0798H132.602V49.9879H131.349V48.7918H123.593V49.9879H122.34ZM124.608 48.0798H129.906V42.849H125.798L125.56 45.5451C125.449 46.7128 125.243 47.3298 124.608 48.0798Z" fill="#B4B4B4"/>
<path d="M109.583 48.7918L114.024 42.1465H115.388L119.83 48.7918H118.418L117.149 46.8362H112.264L110.995 48.7918H109.583ZM112.708 46.1527H116.705L115.008 43.5325C114.897 43.3806 114.77 43.1623 114.706 43.0294C114.643 43.1623 114.516 43.3806 114.405 43.5325L112.708 46.1527Z" fill="#B4B4B4"/>
<path d="M102.324 45.3742L107.479 48.7918H105.766L102.038 46.314L101.055 45.659V48.7918H99.7227V42.1465H101.055V45.1464C101.325 44.9565 101.705 44.7097 102.086 44.4534L105.544 42.1465H107.289L102.324 45.3742Z" fill="#B4B4B4"/>
<path d="M86.957 48.7918L91.3983 42.1465H92.7624L97.2037 48.7918H95.792L94.5231 46.8362H89.6377L88.3687 48.7918H86.957ZM90.0818 46.1527H94.079L92.3818 43.5325C92.2707 43.3806 92.1438 43.1623 92.0804 43.0294C92.0169 43.1623 91.89 43.3806 91.779 43.5325L90.0818 46.1527Z" fill="#B4B4B4"/>
<g clip-path="url(#clip0_373_889)">
<path d="M34.364 6.84723C34.8443 5.77326 36.1709 4.92303 36.1709 4.92303C34.5469 4.49792 32.9459 4.76641 32.0081 5.05728C31.4592 4.47554 29.3092 -0.804823 20.6406 0.0901545C20.6406 0.0901545 22.8363 1.25362 24.1629 3.40157C24.1629 3.40157 23.614 3.35682 23.248 3.3792C13.8703 3.60294 5.86502 11.5235 5.77353 20.697C5.70492 26.8723 8.92992 32.3317 13.8246 35.4865C14.6937 36.0459 15.2198 37.008 15.2198 38.0372V38.5965C15.2198 40.0509 16.432 41.2367 17.9187 41.2367H29.4235C30.9102 41.2367 32.1225 40.0509 32.1225 38.5965V38.0596C32.1225 37.0527 32.6257 36.0906 33.4948 35.5312C38.3666 32.3988 41.5688 27.0066 41.5688 20.8984C41.5688 15.1481 38.7326 10.0468 34.364 6.84723Z" fill="url(#paint0_linear_373_889)"/>
<path d="M24.3235 34.971C16.364 34.971 11.172 33.3824 7.85547 29.0641C9.27355 31.6596 11.3321 33.8746 13.8251 35.4856C14.6943 36.045 15.2204 37.0071 15.2204 38.0363V38.5956C15.2204 40.05 16.4326 41.2358 17.9193 41.2358H29.4241C30.9108 41.2358 32.123 40.05 32.123 38.5956V38.0587C32.123 37.0518 32.6262 36.0897 33.4954 35.5303C36.1257 33.8299 38.2757 31.4806 39.6709 28.7285C36.5602 33.0244 30.0188 34.971 24.3235 34.971Z" fill="url(#paint1_linear_373_889)"/>
<path d="M32.0086 23.8975C33.6507 23.8975 34.982 22.1444 34.982 19.9819C34.982 17.8194 33.6507 16.0664 32.0086 16.0664C30.3664 16.0664 29.0352 17.8194 29.0352 19.9819C29.0352 22.1444 30.3664 23.8975 32.0086 23.8975Z" fill="#00042D"/>
<path d="M31.1854 18.7288C31.7791 18.7288 32.2604 18.2578 32.2604 17.6769C32.2604 17.0959 31.7791 16.625 31.1854 16.625C30.5916 16.625 30.1104 17.0959 30.1104 17.6769C30.1104 18.2578 30.5916 18.7288 31.1854 18.7288Z" fill="white"/>
<path d="M15.2429 23.8975C16.8851 23.8975 18.2163 22.1444 18.2163 19.9819C18.2163 17.8194 16.8851 16.0664 15.2429 16.0664C13.6008 16.0664 12.2695 17.8194 12.2695 19.9819C12.2695 22.1444 13.6008 23.8975 15.2429 23.8975Z" fill="#00042D"/>
<path d="M14.3963 18.7288C14.99 18.7288 15.4713 18.2578 15.4713 17.6769C15.4713 17.0959 14.99 16.625 14.3963 16.625C13.8026 16.625 13.3213 17.0959 13.3213 17.6769C13.3213 18.2578 13.8026 18.7288 14.3963 18.7288Z" fill="white"/>
<path d="M29.9731 44.3483H17.1417C16.2725 44.3483 15.5635 43.6545 15.5635 42.804C15.5635 41.9536 16.2725 41.2598 17.1417 41.2598H29.9731C30.8422 41.2598 31.5512 41.9536 31.5512 42.804C31.5741 43.6545 30.8651 44.3483 29.9731 44.3483Z" fill="url(#paint2_linear_373_889)"/>
<path d="M24.2548 49.0015H23.0654C21.8761 49.0015 20.8239 48.2632 20.4351 47.1668L19.4287 44.3477H27.8915L26.8851 47.1668C26.5191 48.2632 25.4441 49.0015 24.2548 49.0015Z" fill="url(#paint3_linear_373_889)"/>
<path d="M26.871 47.23L27.8876 44.3418L19.4355 44.3418L20.455 47.23H26.871Z" fill="url(#paint4_linear_373_889)" fill-opacity="0.82"/>
<path d="M34.8447 8.63672C31.0936 8.63672 27.8229 10.628 26.0617 13.6038C25.4899 12.7984 24.5293 12.2838 23.4771 12.2838C22.425 12.2838 21.4872 12.776 20.9154 13.5591C19.1543 10.628 15.8835 8.63672 12.1553 8.63672C6.5516 8.63672 2 13.0892 2 18.571C2 24.0527 6.5516 28.5052 12.1553 28.5052C17.759 28.5052 22.2878 24.0527 22.2878 18.571C22.2878 17.3627 22.059 16.1769 21.6473 15.1029C21.7846 14.2527 22.5394 13.6038 23.4543 13.6038C24.4149 13.6038 25.1926 14.3198 25.284 15.2148C24.8952 16.2664 24.6894 17.3851 24.6894 18.571C24.6894 24.0527 29.241 28.5052 34.8447 28.5052C40.4484 28.5052 45 24.0527 45 18.571C45 13.0892 40.4484 8.63672 34.8447 8.63672ZM12.1553 27.1851C7.28351 27.1851 3.34947 23.3367 3.34947 18.571C3.34947 13.8052 7.28351 9.95681 12.1553 9.95681C17.0271 9.95681 20.9612 13.8052 20.9612 18.571C20.9612 23.3367 17.0043 27.1851 12.1553 27.1851ZM34.8447 27.1851C29.9729 27.1851 26.0388 23.3367 26.0388 18.571C26.0388 13.8052 29.9729 9.95681 34.8447 9.95681C39.7165 9.95681 43.6505 13.8052 43.6505 18.571C43.6505 23.3367 39.7165 27.1851 34.8447 27.1851Z" fill="#1F222E"/>
<path d="M23.889 31.3249C23.7975 31.3249 23.6832 31.3249 23.5688 31.3249C22.1965 31.2354 20.8927 30.4299 20.2066 29.2665C19.955 28.8414 20.0922 28.282 20.5496 28.0359C20.9842 27.7898 21.556 27.924 21.8076 28.3715C22.1965 29.0204 22.9512 29.4902 23.706 29.535C24.4151 29.5797 25.3528 29.3112 25.8103 28.4162C26.039 27.9688 26.5879 27.7898 27.0454 28.0135C27.5028 28.2372 27.6858 28.7742 27.4571 29.2217C26.7938 30.4971 25.4215 31.3249 23.889 31.3249Z" fill="#00042D"/>
</g>
<path d="M357.366 32.9993C355.593 32.9993 354.275 32.765 353.414 32.2964C352.578 31.8064 352.046 31.2207 351.818 30.539L352.54 30.2834V32.6798H348.589V28.3343H352.046C352.274 28.7604 352.591 29.1225 352.996 29.4207C353.427 29.6976 353.908 29.9213 354.44 30.0917C354.972 30.2408 355.517 30.3154 356.074 30.3154C356.707 30.3154 357.188 30.2301 357.518 30.0597C357.847 29.868 358.012 29.6337 358.012 29.3568C358.012 29.1225 357.91 28.9308 357.708 28.7817C357.505 28.6326 357.1 28.4941 356.492 28.3663L353.262 27.6953C351.818 27.3758 350.666 26.8965 349.805 26.2575C348.943 25.6184 348.513 24.7344 348.513 23.6055C348.513 22.7108 348.779 21.9653 349.311 21.3688C349.868 20.7511 350.59 20.2931 351.476 19.9949C352.388 19.6754 353.376 19.5156 354.44 19.5156C355.96 19.5156 357.112 19.7499 357.898 20.2186C358.683 20.6872 359.177 21.2517 359.379 21.912L358.696 21.8801V19.8351H362.609V23.8611H359.151C359.05 23.5203 358.835 23.2327 358.506 22.9984C358.202 22.7428 357.834 22.5511 357.404 22.4232C356.998 22.2741 356.568 22.1996 356.112 22.1996C355.504 22.1996 355.023 22.2954 354.668 22.4871C354.339 22.6576 354.174 22.9025 354.174 23.222C354.174 23.4351 354.275 23.6161 354.478 23.7652C354.706 23.893 355.099 24.0208 355.656 24.1486L358.886 24.8196C360.38 25.1179 361.545 25.5865 362.381 26.2255C363.242 26.8646 363.673 27.7699 363.673 28.9414C363.673 29.8148 363.394 30.5603 362.837 31.1781C362.28 31.7745 361.52 32.2325 360.557 32.552C359.62 32.8502 358.556 32.9993 357.366 32.9993Z" fill="url(#paint5_linear_373_889)"/>
<path d="M334.713 33.0002C333.345 33.0002 332.154 32.7126 331.141 32.1375C330.153 31.5411 329.393 30.7423 328.861 29.7411C328.329 28.7186 328.063 27.5577 328.063 26.2583C328.063 24.9377 328.329 23.7768 328.861 22.7756C329.393 21.7744 330.153 20.9863 331.141 20.4112C332.154 19.8147 333.345 19.5165 334.713 19.5165C335.751 19.5165 336.752 19.7082 337.714 20.0916C338.677 20.4751 339.5 21.0715 340.184 21.8809L339.538 22.0727V17.184H337.41V14.0527H345.2V29.5494H347.137V32.6807H339.994V30.1884L340.184 30.6357C339.5 31.4452 338.677 32.0416 337.714 32.4251C336.752 32.8085 335.751 33.0002 334.713 33.0002ZM336.689 29.3257C337.195 29.3257 337.714 29.2299 338.246 29.0382C338.804 28.8251 339.31 28.4843 339.766 28.0157L339.538 29.6772V23.0632L339.766 24.501C339.31 24.0324 338.804 23.7022 338.246 23.5105C337.714 23.2975 337.195 23.191 336.689 23.191C335.777 23.191 335.029 23.4572 334.447 23.9898C333.864 24.5223 333.573 25.2785 333.573 26.2583C333.573 27.2382 333.864 27.9944 334.447 28.5269C335.029 29.0595 335.777 29.3257 336.689 29.3257Z" fill="url(#paint6_linear_373_889)"/>
<path d="M317.206 32.6804V29.5491H319.143V22.999H317.016V19.8357H324.843V29.5491H326.591V32.6804H317.206ZM321.993 18.366C320.98 18.366 320.169 18.121 319.561 17.6311C318.979 17.1411 318.687 16.4915 318.687 15.682C318.687 14.8726 318.979 14.2229 319.561 13.7329C320.169 13.243 320.98 12.998 321.993 12.998C322.981 12.998 323.766 13.243 324.349 13.7329C324.957 14.2229 325.261 14.8726 325.261 15.682C325.261 16.4915 324.957 17.1411 324.349 17.6311C323.766 18.121 322.981 18.366 321.993 18.366Z" fill="url(#paint7_linear_373_889)"/>
<path d="M293 32.9997V29.6958H294.92V18.302H293V14.998H302.669V18.302H300.749V23.088L306.304 18.302H304.864V14.998H314.362V18.302H312.579L305.755 24.1687V22.4396L313.23 29.6958H315.013V32.9997H305.001V29.6958H306.441L300.749 24.0761V29.6958H302.669V32.9997H293Z" fill="url(#paint8_linear_373_889)"/>
<defs>
<linearGradient id="paint0_linear_373_889" x1="12.1842" y1="50.8885" x2="29.6082" y2="3.48871" gradientUnits="userSpaceOnUse">
<stop stop-color="#D26900"/>
<stop offset="0.0922435" stop-color="#CB6500"/>
<stop offset="0.2837" stop-color="#D66B00"/>
<stop offset="0.48529" stop-color="#FF8D1C"/>
<stop offset="0.6215" stop-color="#FDB50B"/>
<stop offset="0.823322" stop-color="#FFC94A"/>
<stop offset="0.9846" stop-color="#FFE19A"/>
<stop offset="1" stop-color="#FFE19A"/>
</linearGradient>
<linearGradient id="paint1_linear_373_889" x1="23.7704" y1="24.8328" x2="23.7704" y2="50.1079" gradientUnits="userSpaceOnUse">
<stop stop-color="#250B47" stop-opacity="0"/>
<stop offset="0.2757" stop-color="#250B47" stop-opacity="0.2757"/>
<stop offset="0.6158" stop-color="#250B47" stop-opacity="0.6158"/>
<stop offset="0.8672" stop-color="#250B47" stop-opacity="0.84"/>
<stop offset="1" stop-color="#250B47"/>
</linearGradient>
<linearGradient id="paint2_linear_373_889" x1="19.7516" y1="52.7233" x2="35.7442" y2="9.22917" gradientUnits="userSpaceOnUse">
<stop stop-color="#250B47"/>
<stop offset="0.0922435" stop-color="#250B47"/>
<stop offset="0.2837" stop-color="#260E46"/>
<stop offset="0.5494" stop-color="#361365"/>
<stop offset="0.6215" stop-color="#361365"/>
<stop offset="0.7714" stop-color="#511E96"/>
<stop offset="0.9846" stop-color="#511E96"/>
<stop offset="1" stop-color="#511E96"/>
</linearGradient>
<linearGradient id="paint3_linear_373_889" x1="21.2723" y1="50.7067" x2="38.0704" y2="5.00963" gradientUnits="userSpaceOnUse">
<stop stop-color="#250B47"/>
<stop offset="0.0922435" stop-color="#250B47"/>
<stop offset="0.2837" stop-color="#2D0F55"/>
<stop offset="0.5494" stop-color="#4E2189"/>
<stop offset="0.6215" stop-color="#622BA9"/>
<stop offset="0.7714" stop-color="#622BA9"/>
<stop offset="0.9846" stop-color="#622BA9"/>
<stop offset="1" stop-color="#622BA9"/>
</linearGradient>
<linearGradient id="paint4_linear_373_889" x1="23.3424" y1="46.1697" x2="23.3313" y2="43.645" gradientUnits="userSpaceOnUse">
<stop stop-color="#250B47"/>
<stop offset="0.2757" stop-color="#47138B"/>
<stop offset="0.545354" stop-color="#352270"/>
<stop offset="0.848931" stop-color="#2D0D57"/>
<stop offset="1" stop-color="#350C6A"/>
</linearGradient>
<linearGradient id="paint5_linear_373_889" x1="229.231" y1="6.71891" x2="383.61" y2="56.8177" gradientUnits="userSpaceOnUse">
<stop offset="0.358785" stop-color="#FAC64C"/>
<stop offset="1" stop-color="#FF4F04"/>
</linearGradient>
<linearGradient id="paint6_linear_373_889" x1="231.234" y1="6.71978" x2="385.613" y2="56.8186" gradientUnits="userSpaceOnUse">
<stop offset="0.358785" stop-color="#FAC64C"/>
<stop offset="1" stop-color="#FF4F04"/>
</linearGradient>
<linearGradient id="paint7_linear_373_889" x1="233.22" y1="6.71951" x2="387.6" y2="56.8183" gradientUnits="userSpaceOnUse">
<stop offset="0.358785" stop-color="#FAC64C"/>
<stop offset="1" stop-color="#FF4F04"/>
</linearGradient>
<linearGradient id="paint8_linear_373_889" x1="241.441" y1="7.91162" x2="382.478" y2="50.6521" gradientUnits="userSpaceOnUse">
<stop offset="0.358785" stop-color="#FAC64C"/>
<stop offset="1" stop-color="#FF4F04"/>
</linearGradient>
<clipPath id="clip0_373_889">
<rect width="43" height="49" fill="white" transform="translate(2)"/>
</clipPath>
</defs>
</svg>
